<svg width="24" height="25" viewBox="0 0 24 25" fill="none" xmlns="http://www.w3.org/2000/svg">
<g clip-path="url(#clip0_46_1683)">
<path d="M24 12.7659C24 11.7821 23.9183 11.0641 23.7415 10.3196H12.2449V14.7602H18.9931C18.8571 15.8637 18.1224 17.5256 16.4898 18.6423L16.4669 18.791L20.1019 21.5428L20.3537 21.5674C22.6666 19.48 24 16.4088 24 12.7659Z" fill="#4285F4"/>
<path d="M12.2449 24.4657C15.551 24.4657 18.3265 23.402 20.3537 21.5674L16.4898 18.6423C15.4558 19.347 14.068 19.8389 12.2449 19.8389C9.00682 19.8389 6.25854 17.7516 5.27886 14.8666L5.13526 14.8785L1.35552 17.737L1.30609 17.8712C3.31968 21.78 7.45574 24.4657 12.2449 24.4657Z" fill="#34A853"/>
<path d="M5.27886 14.8666C5.02036 14.122 4.87076 13.3243 4.87076 12.5C4.87076 11.6756 5.02036 10.878 5.26526 10.1334L5.25841 9.97487L1.43131 7.07047L1.30609 7.12867C0.476197 8.75071 9.53674e-07 10.5722 9.53674e-07 12.5C9.53674e-07 14.4278 0.476197 16.2492 1.30609 17.8712L5.27886 14.8666Z" fill="#FBBC05"/>
<path d="M12.2449 5.161C14.5442 5.161 16.0952 6.13155 16.9796 6.94261L20.4353 3.64537C18.3129 1.71757 15.551 0.534286 12.2449 0.534286C7.45574 0.534286 3.31968 3.2199 1.30609 7.12867L5.26526 10.1334C6.25855 7.24838 9.00682 5.161 12.2449 5.161Z" fill="#EB4335"/>
</g>
<defs>
<clipPath id="clip0_46_1683">
<rect width="24" height="24" fill="white" transform="translate(0 0.5)"/>
</clipPath>
</defs>
</svg>
